<svg width="8" height="30" viewBox="0 0 8 30" fill="none" xmlns="http://www.w3.org/2000/svg">
<path d="M4.0063 30C5.46587 30 6.64908 28.8448 6.64908 27.4199C6.64908 25.9949 5.46587 24.8397 4.0063 24.8397C2.54674 24.8397 1.36353 25.9949 1.36353 27.4199C1.36353 28.8448 2.54674 30 4.0063 30Z" fill="black"/>
<path d="M3.6541 0.0130402C1.48115 0.18505 -0.163247 2.07715 0.0129379 4.1986L1.36369 19.6794C1.48115 20.9408 2.47953 21.9156 3.77155 22.0302C5.23976 22.1449 6.53179 21.1129 6.64925 19.6794L8 4.1986C8 3.96925 8 3.73991 8 3.5679C7.76509 1.38911 5.88578 -0.158969 3.6541 0.0130402Z" fill="black"/>
</svg>
