<svg width="32" height="32" viewBox="0 0 32 32" fill="none" xmlns="http://www.w3.org/2000/svg">
<path d="M28.0408 21.5884C28.4356 21.5884 28.7548 21.9072 28.7548 22.301C28.7548 22.695 28.4354 23.0135 28.0408 23.0135H12.1499C11.8056 23.0135 11.5178 22.77 11.4509 22.4465L10.509 18.9394C10.5004 18.9146 10.4937 18.8881 10.488 18.8624L7.6086 8.13766L6.50352 4.02264L1.4925 2.38802C1.11786 2.26612 0.913713 1.86482 1.03496 1.49184C1.1571 1.11797 1.55923 0.913326 1.93409 1.03523L7.29112 2.78312C7.52277 2.84971 7.71541 3.03333 7.78213 3.28353L8.36938 5.46989H30.286C30.6808 5.46989 31 5.78867 31 6.18245C31 6.26055 30.9876 6.33554 30.9648 6.40611L27.6097 18.9018C27.5248 19.2206 27.2359 19.4308 26.9203 19.4299V19.4308H12.1178L12.6975 21.5897H28.0414L28.0408 21.5884ZM25.1568 25.0212C25.9834 25.0212 26.7327 25.3561 27.2752 25.8965C27.8176 26.4379 28.1523 27.1847 28.1523 28.0106C28.1523 28.8364 27.8167 29.5844 27.2752 30.1246C26.7327 30.666 25.9843 31 25.1568 31C24.3293 31 23.5809 30.6651 23.0385 30.1246C22.496 29.5833 22.1613 28.8364 22.1613 28.0106C22.1613 27.1857 22.4969 26.4379 23.0385 25.8965C23.5809 25.3552 24.3293 25.0212 25.1568 25.0212ZM26.2656 26.9051C25.9815 26.6215 25.5898 26.4474 25.1568 26.4474C24.7239 26.4474 24.3322 26.6224 24.048 26.9051C23.7649 27.1876 23.5893 27.5788 23.5893 28.0108C23.5893 28.4428 23.7647 28.8338 24.048 29.1174C24.3311 29.401 24.7239 29.5751 25.1568 29.5751C25.5898 29.5751 25.9814 29.4001 26.2656 29.1174C26.5487 28.8349 26.7243 28.4437 26.7243 28.0108C26.7243 27.5788 26.5489 27.1879 26.2656 26.9051ZM15.2347 25.0212C16.0622 25.0212 16.8117 25.3561 17.353 25.8965C17.8955 26.4379 18.2302 27.1847 18.2302 28.0106C18.2302 28.8364 17.8946 29.5844 17.353 30.1246C16.8106 30.666 16.0622 31 15.2347 31C14.4081 31 13.6588 30.6651 13.1164 30.1246C12.5739 29.5833 12.2392 28.8364 12.2392 28.0106C12.2392 27.1857 12.5748 26.4379 13.1164 25.8965C13.6588 25.3552 14.4072 25.0212 15.2347 25.0212ZM16.3435 26.9051C16.0604 26.6215 15.6685 26.4474 15.2347 26.4474C14.8018 26.4474 14.4101 26.6224 14.1259 26.9051C13.8428 27.1876 13.6672 27.5788 13.6672 28.0108C13.6672 28.4428 13.8426 28.8338 14.1259 29.1174C14.4101 29.401 14.8018 29.5751 15.2347 29.5751C15.6676 29.5751 16.0593 29.4001 16.3435 29.1174C16.6266 28.8349 16.8022 28.4437 16.8022 28.0108C16.8022 27.5788 16.6268 27.1879 16.3435 26.9051ZM8.7516 6.89412L11.7347 18.0034H26.3732L29.3554 6.89412H8.75143H8.7516ZM7.60838 8.13763L7.13266 6.36516C7.03069 5.98553 7.25658 5.5955 7.63786 5.4935C7.69994 5.47735 7.76178 5.46961 7.82186 5.46961V5.46873L7.60838 8.13763Z" fill="black" stroke="black"/>
</svg>
