<svg width="24" height="22" viewBox="0 0 24 22" fill="none" xmlns="http://www.w3.org/2000/svg">
<path d="M1 1H2.54C3.10667 1 3.60111 1.38111 3.74778 1.92778L4.17333 3.52444M4.17333 3.52444C10.363 3.34934 16.5469 4.03855 22.5467 5.57C21.6311 8.29556 20.5433 10.9444 19.2978 13.5H6.83333M4.17333 3.52444L6.83333 13.5M6.83333 13.5C5.94928 13.5 5.10143 13.8512 4.47631 14.4763C3.85119 15.1014 3.5 15.9493 3.5 16.8333H21M5.16667 20.1667C5.16667 20.3877 5.07887 20.5996 4.92259 20.7559C4.76631 20.9122 4.55435 21 4.33333 21C4.11232 21 3.90036 20.9122 3.74408 20.7559C3.5878 20.5996 3.5 20.3877 3.5 20.1667C3.5 19.9457 3.5878 19.7337 3.74408 19.5774C3.90036 19.4211 4.11232 19.3333 4.33333 19.3333C4.55435 19.3333 4.76631 19.4211 4.92259 19.5774C5.07887 19.7337 5.16667 19.9457 5.16667 20.1667ZM19.3333 20.1667C19.3333 20.3877 19.2455 20.5996 19.0893 20.7559C18.933 20.9122 18.721 21 18.5 21C18.279 21 18.067 20.9122 17.9107 20.7559C17.7545 20.5996 17.6667 20.3877 17.6667 20.1667C17.6667 19.9457 17.7545 19.7337 17.9107 19.5774C18.067 19.4211 18.279 19.3333 18.5 19.3333C18.721 19.3333 18.933 19.4211 19.0893 19.5774C19.2455 19.7337 19.3333 19.9457 19.3333 20.1667Z" stroke="#003849" stroke-width="1.5" stroke-linecap="round" stroke-linejoin="round"/>
</svg>
