<svg width="25" height="26" viewBox="0 0 25 26" fill="none" xmlns="http://www.w3.org/2000/svg">
<path d="M22.1327 17.4707C22.4485 17.4707 22.7039 17.7258 22.7039 18.0408C22.7039 18.356 22.4483 18.6108 22.1327 18.6108H9.41989C9.14448 18.6108 8.91428 18.416 8.86075 18.1572L8.10721 15.3515C8.10029 15.3317 8.09497 15.3105 8.09036 15.2899L5.78688 6.71013L4.90282 3.41811L0.893999 2.11041C0.59429 2.0129 0.43097 1.69185 0.527966 1.39347C0.625679 1.09437 0.94738 0.930661 1.24728 1.02818L5.5329 2.4265C5.71822 2.47977 5.87233 2.62667 5.92571 2.82683L6.3955 4.57591H23.9288C24.2446 4.57591 24.5 4.83094 24.5 5.14596C24.5 5.20844 24.4901 5.26843 24.4718 5.32489L21.7877 15.3215C21.7198 15.5765 21.4887 15.7446 21.2362 15.7439V15.7446H9.39422L9.85798 17.4718H22.1331L22.1327 17.4707ZM19.8255 20.2169C20.4867 20.2169 21.0862 20.4849 21.5201 20.9172C21.9541 21.3503 22.2219 21.9478 22.2219 22.6085C22.2219 23.2691 21.9534 23.8675 21.5201 24.2997C21.0862 24.7328 20.4875 25 19.8255 25C19.1634 25 18.5647 24.732 18.1308 24.2997C17.6968 23.8666 17.429 23.2691 17.429 22.6085C17.429 21.9485 17.6975 21.3503 18.1308 20.9172C18.5647 20.4842 19.1634 20.2169 19.8255 20.2169ZM20.7125 21.7241C20.4852 21.4972 20.1718 21.3579 19.8255 21.3579C19.4791 21.3579 19.1658 21.4979 18.9384 21.7241C18.7119 21.9501 18.5715 22.263 18.5715 22.6086C18.5715 22.9542 18.7118 23.267 18.9384 23.4939C19.1649 23.7208 19.4791 23.8601 19.8255 23.8601C20.1718 23.8601 20.4852 23.7201 20.7125 23.4939C20.939 23.2679 21.0794 22.955 21.0794 22.6086C21.0794 22.263 20.9392 21.9503 20.7125 21.7241ZM11.8878 20.2169C12.5498 20.2169 13.1494 20.4849 13.5824 20.9172C14.0164 21.3503 14.2842 21.9478 14.2842 22.6085C14.2842 23.2691 14.0157 23.8675 13.5824 24.2997C13.1485 24.7328 12.5498 25 11.8878 25C11.2265 25 10.627 24.732 10.1931 24.2997C9.75913 23.8666 9.49135 23.2691 9.49135 22.6085C9.49135 21.9485 9.75985 21.3503 10.1931 20.9172C10.627 20.4842 11.2257 20.2169 11.8878 20.2169ZM12.7748 21.7241C12.5484 21.4972 12.2348 21.3579 11.8878 21.3579C11.5414 21.3579 11.2281 21.4979 11.0007 21.7241C10.7742 21.9501 10.6338 22.263 10.6338 22.6086C10.6338 22.9542 10.7741 23.267 11.0007 23.4939C11.2281 23.7208 11.5414 23.8601 11.8878 23.8601C12.2341 23.8601 12.5475 23.7201 12.7748 23.4939C13.0013 23.2679 13.1417 22.955 13.1417 22.6086C13.1417 22.263 13.0015 21.9503 12.7748 21.7241ZM6.70128 5.71529L9.08775 14.6027H20.7985L23.1843 5.71529H6.70114H6.70128ZM5.78671 6.7101L5.40613 5.29212C5.32455 4.98843 5.50527 4.6764 5.81029 4.5948C5.85995 4.58188 5.90943 4.57569 5.95749 4.57569V4.57498L5.78671 6.7101Z" fill="#EBF6FE" stroke="#EBF6FE"/>
</svg>
