<svg width="25" height="25" viewBox="0 0 25 25" fill="none" xmlns="http://www.w3.org/2000/svg">
<path d="M24.3851 23.6454L17.8317 17.0919L17.5126 16.7729L17.7974 16.4228C19.3752 14.4832 20.1486 12.0122 19.9584 9.51886M24.3851 23.6454L0.502726 9.99343M24.3851 23.6454C24.4922 23.7795 24.5273 23.9577 24.4787 24.1229C24.4281 24.2938 24.2943 24.4277 24.1233 24.4784C23.9574 24.5274 23.7783 24.4918 23.6439 24.3836L17.0919 17.8317L16.7729 17.5126L16.4228 17.7974C14.4831 19.3752 12.012 20.1486 9.51887 19.9584C7.02586 19.7679 4.70098 18.6282 3.02331 16.774L2.65255 17.1095L3.0233 16.774C1.34581 14.9201 0.443671 12.4931 0.502726 9.99343M24.3851 23.6454L0.502726 9.99343M19.9584 9.51886L20.4569 9.48082M19.9584 9.51886L20.4569 9.48082M19.9584 9.51886C19.7679 7.02577 18.6282 4.70093 16.774 3.02331L17.1095 2.65254L16.774 3.02331C14.9201 1.34588 12.493 0.443715 9.99342 0.502723L9.98157 0.00286298M20.4569 9.48082C20.6569 12.1018 19.8439 14.6994 18.1852 16.7384L20.4569 9.48082ZM9.98157 0.00286298L9.99337 0.502724C7.49412 0.561998 5.11279 1.57754 3.34029 3.34031C1.57758 5.11288 0.562015 7.49428 0.502726 9.99343M9.98157 0.00286298C7.35388 0.0651701 4.85016 1.13307 2.98675 2.98675L9.98157 0.00286298ZM4.07755 4.08575L4.07758 4.08572C5.71117 2.45189 7.92677 1.53399 10.2372 1.53399C12.5473 1.53399 14.7632 2.45187 16.3966 4.08572L4.07755 4.08575ZM4.07755 4.08575C2.4442 5.7196 1.52682 7.93545 1.52731 10.2459C1.5278 12.5555 2.44569 14.7706 4.07905 16.4036M4.07755 4.08575L4.07905 16.4036M4.07905 16.4036C5.70562 18.049 7.92326 18.9751 10.2372 18.9751C12.5509 18.9751 14.7685 18.049 16.395 16.4036C18.0284 14.7707 18.9466 12.5555 18.9471 10.2459C18.9476 7.93546 18.0302 5.7196 16.3966 4.08575L4.07905 16.4036Z" fill="#003849" stroke="#003849"/>
</svg>
