<svg width="30" height="30" viewBox="0 0 30 30" fill="none" xmlns="http://www.w3.org/2000/svg">
<path d="M29.3365 28.3074L21.4686 20.4395L21.1495 20.1204L21.4343 19.7704C23.3439 17.423 24.2798 14.4324 24.0496 11.4149M29.3365 28.3074L0.503299 11.9897M29.3365 28.3074C29.4882 28.4944 29.5384 28.7444 29.47 28.9759C29.3996 29.2134 29.2137 29.3993 28.9761 29.4698C28.7437 29.5384 28.4927 29.4876 28.3054 29.3346L20.4395 21.4686L20.1204 21.1495L19.7704 21.4343C17.4228 23.3439 14.4322 24.2798 11.415 24.0496C8.39783 23.8191 5.58418 22.4398 3.55379 20.1958L3.18304 20.5313L3.55379 20.1958C1.52363 17.9521 0.431829 15.0149 0.503299 11.9897M29.3365 28.3074L0.503299 11.9897M24.0496 11.4149L24.5481 11.3769M24.0496 11.4149L24.5481 11.3769M24.0496 11.4149C23.8191 8.39773 22.4398 5.58412 20.1958 3.5538L20.5313 3.18303L20.1958 3.55379C17.9521 1.52371 15.0148 0.431879 11.9897 0.503295L11.9778 0.00343556M24.5481 11.3769C24.7881 14.522 23.8126 17.6391 21.8221 20.0859L24.5481 11.3769ZM11.9778 0.00343556L11.9896 0.503296C8.96484 0.575031 6.0828 1.80414 3.93764 3.93761C1.8042 6.08286 0.575055 8.96501 0.503299 11.9897M11.9778 0.00343556C8.8246 0.0782037 5.82015 1.35968 3.58407 3.58407L11.9778 0.00343556ZM4.96378 4.97354L4.96375 4.97356C3.02249 6.91541 1.93217 9.54898 1.93275 12.2949C1.93334 15.04 3.02434 17.6728 4.96575 19.6136C6.89885 21.5693 9.53448 22.67 12.2845 22.67C15.0343 22.67 17.6699 21.5693 19.603 19.6137C21.5444 17.6729 22.6358 15.0401 22.6363 12.2949C22.6369 9.54897 21.5466 6.91539 19.605 4.97354C17.6638 3.03168 15.0302 1.94077 12.2845 1.94077C9.53859 1.94077 6.90531 3.0317 4.96378 4.97354Z" fill="black" stroke="black"/>
</svg>
