<svg width="42" height="30" viewBox="0 0 42 30" fill="none" xmlns="http://www.w3.org/2000/svg">
<path d="M36.4109 0.984173L15.4475 21.9475C15.0616 22.3334 14.5387 22.5501 13.9932 22.5501C13.4474 22.5501 12.9244 22.3334 12.5385 21.9475L5.39091 14.7999L5.3913 14.8003C4.82915 14.2145 4.06589 13.8643 3.25531 13.8201C2.44509 13.7758 1.64804 14.041 1.02569 14.562C0.394435 15.1276 0.0236882 15.9281 0.00112766 16.7756C-0.0217777 17.6227 0.305108 18.4423 0.904522 19.0413L10.3574 28.4941C11.3217 29.4581 12.6292 30 13.9931 30C15.3566 30 16.6641 29.458 17.6284 28.4941L40.8965 5.224C41.4952 4.62497 41.8217 3.80616 41.7988 2.9595C41.7759 2.11278 41.4059 1.31268 40.7754 0.74698C40.1531 0.225981 39.3565 -0.0391789 38.5458 0.0046898C37.7356 0.0489471 36.9719 0.39913 36.4098 0.98457L36.4109 0.984173Z" fill="#006482"/>
</svg>
