<svg width="37" height="32" viewBox="0 0 37 32" fill="none" xmlns="http://www.w3.org/2000/svg">
<path d="M10.0366 1C7.72093 1 5.41466 1.8807 3.64811 3.64889C0.115298 7.18529 0.119297 12.9107 3.64811 16.4501L17.914 30.7592H17.9143C18.0671 30.9134 18.2756 31 18.4932 31C18.7108 31 18.9193 30.9134 19.0721 30.7592C23.8343 25.9922 28.5881 21.2295 33.3504 16.4624C36.8832 12.926 36.8832 7.21006 33.3504 3.67424C29.8176 0.137846 24.0941 0.137846 20.5607 3.67424L18.5117 5.71491L16.4376 3.64911C14.671 1.88091 12.3523 1.00022 10.0367 1.00022L10.0366 1ZM10.0366 2.6098C11.9289 2.6098 13.8214 3.3301 15.2797 4.78996L17.9265 7.43885V7.43857C18.0796 7.59276 18.2881 7.67933 18.5057 7.67933C18.7233 7.67933 18.9318 7.59276 19.0846 7.43857L21.719 4.81481C24.6354 1.89569 29.289 1.89569 32.205 4.81481C35.1214 7.73392 35.1214 12.4028 32.205 15.3216C27.6374 19.8937 23.0672 24.4631 18.499 29.0354L4.79304 15.3093C1.87892 12.3865 1.87666 7.70821 4.79304 4.78946C6.25112 3.32994 8.14347 2.6093 10.0362 2.6093L10.0366 2.6098Z" fill="black" stroke="black"/>
</svg>
