<svg width="35" height="35" viewBox="0 0 35 35" fill="none" xmlns="http://www.w3.org/2000/svg">
<path fill-rule="evenodd" clip-rule="evenodd" d="M5.34238 0C3.92549 0 2.56664 0.562856 1.56475 1.56475C0.562856 2.56664 0 3.92549 0 5.34238V13.6316C0.000302472 15.0479 0.562943 16.406 1.56425 17.4076L17.5914 33.4348C18.0875 33.931 18.6765 34.3246 19.3248 34.5932C19.973 34.8618 20.6678 35 21.3695 35C22.0712 35 22.766 34.8618 23.4143 34.5932C24.0625 34.3246 24.6516 33.931 25.1477 33.4348L33.4348 25.1477C33.931 24.6516 34.3246 24.0625 34.5932 23.4143C34.8618 22.766 35 22.0712 35 21.3695C35 20.6678 34.8618 19.973 34.5932 19.3248C34.3246 18.6765 33.931 18.0875 33.4348 17.5914L17.4076 1.56425C16.4066 0.563466 15.0493 0.000868752 13.6338 0H5.34238ZM6.41086 8.54781C6.97761 8.54781 7.52115 8.32267 7.92191 7.92191C8.32267 7.52115 8.54781 6.97761 8.54781 6.41086C8.54781 5.8441 8.32267 5.30056 7.92191 4.8998C7.52115 4.49905 6.97761 4.2739 6.41086 4.2739C5.8441 4.2739 5.30056 4.49905 4.8998 4.8998C4.49905 5.30056 4.2739 5.8441 4.2739 6.41086C4.2739 6.97761 4.49905 7.52115 4.8998 7.92191C5.30056 8.32267 5.8441 8.54781 6.41086 8.54781Z" fill="#003849"/>
<path d="M12.0852 15.2773V14.5107C12.0852 14.016 12.2431 13.6253 12.5588 13.3389C12.8778 13.0492 13.3222 12.9043 13.8918 12.9043C14.4615 12.9043 14.9042 13.0492 15.22 13.3389C15.5357 13.6253 15.6936 14.016 15.6936 14.5107V15.2773C15.6936 15.7689 15.5357 16.1611 15.22 16.4541C14.9042 16.7438 14.4615 16.8887 13.8918 16.8887C13.3222 16.8887 12.8778 16.7438 12.5588 16.4541C12.2431 16.1611 12.0852 15.7689 12.0852 15.2773ZM13.218 15.292C13.218 15.5068 13.2685 15.681 13.3694 15.8145C13.4703 15.9479 13.6444 16.0146 13.8918 16.0146C14.1392 16.0146 14.3118 15.9479 14.4094 15.8145C14.5103 15.681 14.5608 15.5068 14.5608 15.292V14.501C14.5608 14.2829 14.5103 14.1071 14.4094 13.9736C14.3118 13.8402 14.1392 13.7734 13.8918 13.7734C13.6444 13.7734 13.4703 13.8402 13.3694 13.9736C13.2685 14.1071 13.218 14.2829 13.218 14.501V15.292ZM19.2922 13.2559L14.8293 20.3701L13.9651 19.8086L18.428 12.6992L19.2922 13.2559ZM17.5247 18.627V17.8604C17.5247 17.3656 17.6825 16.9749 17.9983 16.6885C18.3173 16.3988 18.7616 16.2539 19.3313 16.2539C19.901 16.2539 20.3437 16.3988 20.6594 16.6885C20.9752 16.9749 21.1331 17.3656 21.1331 17.8604V18.627C21.1331 19.1185 20.9752 19.5107 20.6594 19.8037C20.3437 20.0934 19.901 20.2383 19.3313 20.2383C18.7616 20.2383 18.3173 20.0934 17.9983 19.8037C17.6825 19.5107 17.5247 19.1185 17.5247 18.627ZM18.6575 18.6416C18.6575 18.8564 18.7079 19.0306 18.8088 19.1641C18.9097 19.2975 19.0839 19.3643 19.3313 19.3643C19.5787 19.3643 19.7512 19.2975 19.8489 19.1641C19.9498 19.0306 20.0002 18.8564 20.0002 18.6416V17.8506C20.0002 17.6325 19.9498 17.4567 19.8489 17.3232C19.7512 17.1898 19.5787 17.123 19.3313 17.123C19.0839 17.123 18.9097 17.1898 18.8088 17.3232C18.7079 17.4567 18.6575 17.6325 18.6575 17.8506V18.6416Z" fill="#EBF6FE"/>
</svg>
