<svg width="35" height="35" viewBox="0 0 35 35" fill="none" xmlns="http://www.w3.org/2000/svg">
<path fill-rule="evenodd" clip-rule="evenodd" d="M16.7584 0.26532C16.9667 0.0938735 17.2291 0 17.5 0C17.7709 0 18.0333 0.0938735 18.2416 0.26532C22.6116 3.86107 28.0471 5.94969 33.7247 6.21472C33.9805 6.22251 34.2255 6.31882 34.417 6.48689C34.6084 6.65495 34.7342 6.88413 34.7725 7.13451C34.9242 8.2599 35 9.40693 35 10.5756C35 21.7472 27.8687 31.2719 17.8631 34.9359C17.6287 35.0214 17.3713 35.0214 17.1369 34.9359C7.13125 31.2719 0 21.7472 0 10.5734C0 9.40765 0.0758335 8.26134 0.2275 7.13451C0.265843 6.88377 0.391977 6.65432 0.583886 6.48621C0.775794 6.3181 1.02128 6.22201 1.2775 6.21472C6.95455 5.94861 12.3893 3.86142 16.7584 0.26532ZM25.9372 13.1488C26.0639 12.9763 26.155 12.7808 26.2053 12.5735C26.2556 12.3661 26.2641 12.151 26.2304 11.9404C26.1967 11.7298 26.1214 11.5278 26.0088 11.346C25.8961 11.1642 25.7484 11.0061 25.5741 10.8808C25.3997 10.7554 25.2021 10.6653 24.9925 10.6155C24.7829 10.5657 24.5655 10.5573 24.3526 10.5906C24.1397 10.624 23.9356 10.6985 23.7518 10.8099C23.568 10.9214 23.4082 11.0675 23.2816 11.24L15.6625 21.6066L11.55 17.5379C11.3986 17.3829 11.2175 17.2593 11.0173 17.1744C10.8171 17.0894 10.6018 17.0447 10.3839 17.0429C10.1661 17.0412 9.95008 17.0823 9.7485 17.164C9.54691 17.2457 9.36379 17.3664 9.20982 17.5188C9.05585 17.6713 8.93411 17.8526 8.85172 18.0521C8.76932 18.2516 8.72791 18.4654 8.72991 18.6809C8.7319 18.8964 8.77726 19.1094 8.86334 19.3074C8.94941 19.5054 9.07448 19.6844 9.23125 19.8341L14.7 25.2446C14.8676 25.4105 15.0696 25.5385 15.292 25.6198C15.5145 25.7011 15.7521 25.7337 15.9885 25.7154C16.2249 25.6971 16.4544 25.6283 16.6614 25.5138C16.8683 25.3992 17.0477 25.2417 17.1872 25.052L25.9372 13.1488Z" fill="#003849"/>
</svg>
