<svg width="35" height="30" viewBox="0 0 35 30" fill="none" xmlns="http://www.w3.org/2000/svg">
<path d="M17.5006 11.6651C19.0475 11.6651 20.531 11.0506 21.6248 9.95679C22.7187 8.86298 23.3332 7.37944 23.3332 5.83255C23.3332 4.28567 22.7187 2.80213 21.6248 1.70832C20.531 0.6145 19.0475 0 17.5006 0C15.9537 0 14.4702 0.6145 13.3764 1.70832C12.2826 2.80213 11.6681 4.28567 11.6681 5.83255C11.6681 7.37944 12.2826 8.86298 13.3764 9.95679C14.4702 11.0506 15.9537 11.6651 17.5006 11.6651ZM9.72387 9.72092C9.72387 10.7522 9.31421 11.7412 8.58499 12.4704C7.85578 13.1996 6.86676 13.6093 5.8355 13.6093C4.80424 13.6093 3.81522 13.1996 3.08601 12.4704C2.3568 11.7412 1.94713 10.7522 1.94713 9.72092C1.94713 8.68966 2.3568 7.70064 3.08601 6.97143C3.81522 6.24222 4.80424 5.83255 5.8355 5.83255C6.86676 5.83255 7.85578 6.24222 8.58499 6.97143C9.31421 7.70064 9.72387 8.68966 9.72387 9.72092ZM0.955598 23.964C0.623698 23.7754 0.375151 23.4685 0.259579 23.1047C-0.0829753 21.9952 -0.0865674 20.8087 0.249263 19.6972C0.585093 18.5856 1.24506 17.5996 2.14465 16.8654C3.04423 16.1312 4.1425 15.6822 5.2988 15.576C6.45509 15.4697 7.61679 15.711 8.63513 16.2689C6.54193 18.325 5.23204 21.0473 4.93146 23.966C4.88739 24.4002 4.90359 24.824 4.98006 25.2375C3.56149 25.1129 2.18762 24.6782 0.955598 23.964ZM30.0212 25.2355C31.4396 25.1115 32.8134 24.6775 34.0456 23.964C34.3768 23.775 34.6246 23.4682 34.7397 23.1047C35.0828 21.9951 35.0868 20.8083 34.7512 19.6964C34.4156 18.5845 33.7557 17.5981 32.856 16.8636C31.9563 16.1291 30.8578 15.6799 29.7012 15.5736C28.5446 15.4673 27.3827 15.7088 26.3641 16.267C28.4592 18.323 29.7705 21.0461 30.0717 23.966C30.1156 24.39 30.0985 24.8182 30.0212 25.2375M33.0541 9.72092C33.0541 10.7522 32.6444 11.7412 31.9152 12.4704C31.186 13.1996 30.197 13.6093 29.1657 13.6093C28.1345 13.6093 27.1454 13.1996 26.4162 12.4704C25.687 11.7412 25.2773 10.7522 25.2773 9.72092C25.2773 8.68966 25.687 7.70064 26.4162 6.97143C27.1454 6.24222 28.1345 5.83255 29.1657 5.83255C30.197 5.83255 31.186 6.24222 31.9152 6.97143C32.6444 7.70064 33.0541 8.68966 33.0541 9.72092ZM8.37072 25.6438C8.17848 25.4725 8.02949 25.2581 7.93589 25.0182C7.8423 24.7783 7.80676 24.5197 7.83218 24.2634C8.07947 21.8711 9.20486 19.6553 10.9908 18.0445C12.7768 16.4336 15.0965 15.542 17.5016 15.542C19.9067 15.542 22.2264 16.4336 24.0124 18.0445C25.7983 19.6553 26.9237 21.8711 27.171 24.2634C27.1964 24.5197 27.1609 24.7783 27.0673 25.0182C26.9737 25.2581 26.8247 25.4725 26.6324 25.6438C24.1321 27.9117 20.8763 29.1664 17.5006 29.1628C14.1253 29.1678 10.8695 27.9129 8.37072 25.6438Z" fill="#003849"/>
</svg>
