<svg width="64" height="35" viewBox="0 0 64 35" fill="none" xmlns="http://www.w3.org/2000/svg">
<path d="M23.5046 0C21.307 0 19.5273 1.78182 19.5273 3.97728V19.091H44.982V3.97728C44.982 1.7797 43.2001 0 41.0047 0H23.5046ZM44.982 22.2728H19.5273V27.841C19.5273 30.0364 21.3092 31.8183 23.5046 31.8183H24.3001C24.3001 30.1305 24.9705 28.5119 26.164 27.3185C27.3574 26.1251 28.976 25.4546 30.6637 25.4546C32.3515 25.4546 33.9701 26.1251 35.1635 27.3185C36.3569 28.5119 37.0274 30.1305 37.0274 31.8183H43.391C43.813 31.8183 44.2176 31.6507 44.516 31.3523C44.8143 31.0539 44.982 30.6493 44.982 30.2274V22.2728Z" fill="#003849"/>
<path d="M33.8456 31.818C33.8456 30.9741 33.5104 30.1648 32.9137 29.5681C32.3169 28.9714 31.5076 28.6362 30.6638 28.6362C29.8199 28.6362 29.0106 28.9714 28.4139 29.5681C27.8172 30.1648 27.4819 30.9741 27.4819 31.818C27.4819 32.6619 27.8172 33.4712 28.4139 34.0679C29.0106 34.6646 29.8199 34.9998 30.6638 34.9998C31.5076 34.9998 32.3169 34.6646 32.9137 34.0679C33.5104 33.4712 33.8456 32.6619 33.8456 31.818ZM49.7547 4.77248C49.3328 4.77248 48.9281 4.9401 48.6298 5.23845C48.3314 5.53681 48.1638 5.94146 48.1638 6.3634V30.2271C48.1638 30.4109 48.1935 30.5863 48.2529 30.7532C48.5173 29.1859 49.3586 27.7743 50.6113 26.7961C51.864 25.8179 53.4374 25.3439 55.022 25.4673C56.6066 25.5907 58.0876 26.3026 59.1738 27.4629C60.2599 28.6233 60.8726 30.1481 60.8911 31.7374C62.7005 31.3662 64.1196 29.7541 63.9966 27.7432C63.5219 19.9761 60.7684 12.5212 56.0802 6.31037C55.7146 5.83049 55.2428 5.44188 54.7018 5.17504C54.1608 4.90821 53.5653 4.77042 52.962 4.77248H49.7547Z" fill="#003849"/>
<path d="M57.7089 31.8185C57.7089 30.9747 57.3736 30.1654 56.7769 29.5687C56.1802 28.9719 55.3709 28.6367 54.527 28.6367C53.6832 28.6367 52.8739 28.9719 52.2772 29.5687C51.6804 30.1654 51.3452 30.9747 51.3452 31.8185C51.3452 32.6624 51.6804 33.4717 52.2772 34.0684C52.8739 34.6651 53.6832 35.0004 54.527 35.0004C55.3709 35.0004 56.1802 34.6651 56.7769 34.0684C57.3736 33.4717 57.7089 32.6624 57.7089 31.8185Z" fill="#003849"/>
<path d="M2 7C1.44772 7 1 7.44772 1 8C1 8.55228 1.44772 9 2 9L2 7ZM16 7L2 7L2 9L16 9L16 7Z" fill="#003849"/>
<path d="M6 15C5.44772 15 5 15.4477 5 16C5 16.5523 5.44772 17 6 17V15ZM16 15H6V17H16V15Z" fill="#003849"/>
<path d="M1 23C0.447715 23 -4.29194e-08 23.4477 0 24C4.29194e-08 24.5523 0.447715 25 1 25L1 23ZM16 23L1 23L1 25L16 25L16 23Z" fill="#003849"/>
</svg>
