<svg width="28" height="32" viewBox="0 0 28 32" fill="none" xmlns="http://www.w3.org/2000/svg">
<path d="M17.4514 13.5322C19.6554 14.1398 21.6298 15.3154 23.2052 16.8906C25.5636 19.2491 27.0277 22.5027 27.0277 26.0818V27.4007C27.0277 28.3926 26.6234 29.2923 25.9716 29.9438C25.32 30.5954 24.4192 31 23.4285 31H4.59926C3.60743 31 2.70774 30.5957 2.05616 29.9438C1.40457 29.2923 1 28.3923 1 27.4007V26.0818C1 22.5028 2.46412 19.2491 4.82258 16.8906C6.39804 15.3163 8.37227 14.1398 10.5763 13.5322C10.0919 13.2446 9.64715 12.8971 9.2509 12.5008C8.03214 11.2821 7.27754 9.59742 7.27754 7.7371C7.27754 5.87677 8.03214 4.19299 9.2509 2.97336C10.4697 1.7546 12.1543 1 14.0146 1C15.875 1 17.5587 1.75373 18.7784 2.97336C19.9971 4.19211 20.7517 5.87677 20.7517 7.7371C20.7517 9.59742 19.9971 11.2821 18.7784 12.5008C18.3822 12.897 17.9374 13.2435 17.4529 13.5322H17.4514ZM17.7833 3.96797C16.8182 3.00372 15.4855 2.40728 14.0139 2.40728C12.5415 2.40728 11.2088 3.00372 10.2446 3.96797C9.28035 4.93309 8.68391 6.26575 8.68391 7.73731C8.68391 9.20975 9.28035 10.5424 10.2446 11.5067C11.2097 12.4718 12.5424 13.0682 14.0139 13.0682C15.4864 13.0682 16.819 12.4718 17.7833 11.5067C18.7475 10.5424 19.344 9.20975 19.344 7.73731C19.344 6.26487 18.7475 4.93222 17.7833 3.96797ZM22.2107 17.8843C20.1067 15.7804 17.2052 14.4744 14.0131 14.4744C10.8218 14.4744 7.92012 15.7804 5.81546 17.8843C3.71151 19.9883 2.40555 22.8898 2.40555 26.0819V27.4009C2.40555 28.0038 2.65196 28.5526 3.04904 28.9497C3.44611 29.3467 3.99491 29.5932 4.5978 29.5932H23.427C24.031 29.5932 24.5787 29.3468 24.9758 28.9497C25.3729 28.5517 25.6193 28.0038 25.6193 27.4009V26.0819C25.6193 22.8906 24.3133 19.989 22.2094 17.8843H22.2107Z" fill="black" stroke="black"/>
</svg>
