<svg width="18" height="22" viewBox="0 0 18 22" fill="none" xmlns="http://www.w3.org/2000/svg">
<path d="M12.5374 4.84615C12.5374 5.86621 12.1322 6.84449 11.4109 7.56579C10.6896 8.28708 9.71133 8.6923 8.69127 8.6923C7.67121 8.6923 6.69293 8.28708 5.97163 7.56579C5.25034 6.84449 4.84512 5.86621 4.84512 4.84615C4.84512 3.82609 5.25034 2.8478 5.97163 2.12651C6.69293 1.40522 7.67121 1 8.69127 1C9.71133 1 10.6896 1.40522 11.4109 2.12651C12.1322 2.8478 12.5374 3.82609 12.5374 4.84615ZM1 19.3261C1.03296 17.308 1.85778 15.3837 3.29659 13.9682C4.7354 12.5527 6.6729 11.7594 8.69127 11.7594C10.7096 11.7594 12.6471 12.5527 14.086 13.9682C15.5248 15.3837 16.3496 17.308 16.3825 19.3261C13.97 20.4336 11.3459 21.0046 8.69127 21C5.94666 21 3.34154 20.401 1 19.3261Z" stroke="#003849" stroke-width="1.5" stroke-linecap="round" stroke-linejoin="round"/>
</svg>
